<svg width="25" height="24" viewBox="0 0 25 24" fill="none" xmlns="http://www.w3.org/2000/svg">
<path d="M20.3125 23.625H4.6875C3.61055 23.625 2.73438 22.7839 2.73438 21.75V2.25C2.73438 1.21613 3.61055 0.375 4.6875 0.375H12.6342C13.1559 0.375 13.6465 0.570187 14.015 0.924187L21.6936 8.29556C22.0625 8.64975 22.2656 9.12037 22.2656 9.62119V21.75C22.2656 22.7839 21.3895 23.625 20.3125 23.625ZM4.6875 1.125C4.04121 1.125 3.51562 1.62956 3.51562 2.25V21.75C3.51562 22.3704 4.04121 22.875 4.6875 22.875H20.3125C20.9588 22.875 21.4844 22.3704 21.4844 21.75V9.62119C21.4844 9.32512 21.3592 9.03525 21.1412 8.82581L13.4627 1.45444C13.2414 1.242 12.9471 1.125 12.6342 1.125H4.6875Z" fill="#FD4233"/>
<path d="M18.5957 15.06C18.582 14.9644 18.502 14.8444 18.416 14.7638C18.1699 14.5312 17.6289 14.4094 16.8047 14.3981C16.2461 14.3925 15.5742 14.4394 14.8672 14.535C14.5508 14.3606 14.2246 14.1694 13.9688 13.9387C13.2793 13.3219 12.7051 12.465 12.3457 11.5219C12.3691 11.4338 12.3887 11.3569 12.4082 11.2781C12.4082 11.2781 12.7949 9.16312 12.6934 8.44687C12.6797 8.34937 12.6699 8.32125 12.6426 8.24438L12.6094 8.16187C12.5039 7.9275 12.2969 7.68 11.9727 7.69312L11.7813 7.6875H11.7773C11.4141 7.6875 11.1211 7.86563 11.043 8.13C10.8086 8.9625 11.0508 10.2094 11.4902 11.8219L11.377 12.0844C11.0625 12.8231 10.668 13.5656 10.3203 14.22L10.2754 14.3044C9.9082 14.9925 9.57617 15.5775 9.27344 16.0725L8.96289 16.23C8.93945 16.2413 8.40625 16.5131 8.28125 16.5844C7.2207 17.1938 6.51758 17.8838 6.40039 18.4313C6.36328 18.6075 6.39063 18.8306 6.58008 18.9338L6.88086 19.08C7.01172 19.1419 7.15039 19.1738 7.29102 19.1738C8.04688 19.1738 8.92383 18.27 10.1328 16.245C11.5273 15.81 13.1172 15.4463 14.5098 15.2475C15.5703 15.8194 16.875 16.2188 17.6992 16.2188C17.8457 16.2188 17.9727 16.2056 18.0742 16.1794C18.2324 16.1381 18.3652 16.0519 18.4473 15.9356C18.6074 15.705 18.6387 15.3863 18.5957 15.06ZM7.12695 18.6244C7.26367 18.2625 7.81055 17.5463 8.61719 16.9125C8.66797 16.8731 8.79297 16.7606 8.90625 16.6556C8.0625 17.9475 7.49805 18.4613 7.12695 18.6244ZM11.9043 8.0625C12.1465 8.0625 12.2852 8.64938 12.2969 9.20063C12.3086 9.75188 12.1738 10.1381 12.0078 10.425C11.8691 10.0012 11.8027 9.33375 11.8027 8.89688C11.8027 8.89688 11.793 8.0625 11.9043 8.0625ZM10.4785 15.5888C10.6484 15.2981 10.8242 14.9906 11.0039 14.6663C11.4434 13.8694 11.7207 13.2469 11.9258 12.735C12.3359 13.4513 12.8477 14.0606 13.4473 14.5481C13.5234 14.6081 13.6035 14.67 13.6855 14.7319C12.4648 14.9625 11.4082 15.2456 10.4785 15.5888ZM18.1797 15.5231C18.1055 15.5663 17.8926 15.5925 17.7559 15.5925C17.3145 15.5925 16.7656 15.3994 15.998 15.0825C16.293 15.0619 16.5645 15.0506 16.8066 15.0506C17.25 15.0506 17.3809 15.0488 17.8164 15.1556C18.25 15.2625 18.2559 15.4781 18.1797 15.5231Z" fill="#FF402F"/>
</svg>
